HIERARCHY
ROOT Hips
{
	OFFSET 0.000000 8.830580 0.000000
	CHANNELS 6 Xposition Yposition Zposition Zrotation Yrotation Xrotation 
	JOINT Spine
	{
		OFFSET 0.000000 0.010000 0.000000
		CHANNELS 3 Zrotation Yrotation Xrotation
		JOINT Spine1
		{
			OFFSET 0.000000 2.459130 0.000000
			CHANNELS 3 Zrotation Yrotation Xrotation
			JOINT Neck
			{
				OFFSET 0.000000 2.484630 0.000000
				CHANNELS 3 Zrotation Yrotation Xrotation
				JOINT Head_virtual
				{
					OFFSET 0.000000 0.000000 0.000000
					CHANNELS 3 Zrotation Yrotation Xrotation
					JOINT Head
					{
						OFFSET 0.000000 0.927525 0.000000
						CHANNELS 3 Zrotation Yrotation Xrotation
						End Site
						{
							OFFSET 0.000000 0.000000 0.000000
						}
					}
				}
				JOINT LeftUpArm_virtual
				{
					OFFSET 0.000000 0.000000 0.000000
					CHANNELS 3 Zrotation Yrotation Xrotation
					JOINT LeftUpArm
					{
						OFFSET 1.248820 0.000000 0.000000
						CHANNELS 3 Zrotation Yrotation Xrotation
						JOINT LeftForeArm
						{
							OFFSET 2.597580 0.000000 0.000000
							CHANNELS 3 Zrotation Yrotation Xrotation
							JOINT LeftHand
							{
								OFFSET 2.455420 0.000000 0.000000
								CHANNELS 3 Zrotation Yrotation Xrotation
								End Site
								{
									OFFSET 0.000000 0.000000 0.000000
								}
							}
						}
					}
				}
				JOINT RightUpArm_virtual
				{
					OFFSET -0.000000 -0.000000 -0.000000
					CHANNELS 3 Zrotation Yrotation Xrotation
					JOINT RightUpArm
					{
						OFFSET -1.248820 -0.000000 -0.000000
						CHANNELS 3 Zrotation Yrotation Xrotation
						JOINT RightForeArm
						{
							OFFSET -2.597580 -0.000000 -0.000000
							CHANNELS 3 Zrotation Yrotation Xrotation
							JOINT RightHand
							{
								OFFSET -2.455420 -0.000000 -0.000000
								CHANNELS 3 Zrotation Yrotation Xrotation
								End Site
								{
									OFFSET 0.000000 0.000000 0.000000
								}
							}
						}
					}
				}
			}
		}
	}
	JOINT LeftUpLeg
	{
		OFFSET 1.271939 0.000000 0.000000
		CHANNELS 3 Zrotation Yrotation Xrotation
		JOINT LeftLowLeg
		{
			OFFSET 0.000000 -4.342910 0.000000
			CHANNELS 3 Zrotation Yrotation Xrotation
			JOINT LeftFoot
			{
				OFFSET 0.000000 -4.487670 0.000000
				CHANNELS 3 Zrotation Yrotation Xrotation
				JOINT LeftToeBase
				{
					OFFSET 0.000000 0.000000 1.515070
					CHANNELS 3 Zrotation Yrotation Xrotation
					End Site
					{
						OFFSET 0.000000 0.000000 0.000000
					}
				}
			}
		}
	}
	JOINT RightUpLeg
	{
		OFFSET -1.271939 0.000000 0.000000
		CHANNELS 3 Zrotation Yrotation Xrotation
		JOINT RightLowLeg
		{
			OFFSET 0.000000 -4.342910 0.000000
			CHANNELS 3 Zrotation Yrotation Xrotation
			JOINT RightFoot
			{
				OFFSET 0.000000 -4.487670 0.000000
				CHANNELS 3 Zrotation Yrotation Xrotation
				JOINT RightToeBase
				{
					OFFSET 0.000000 0.000000 1.515070
					CHANNELS 3 Zrotation Yrotation Xrotation
					End Site
					{
						OFFSET 0.000000 0.000000 0.000000
					}
				}
			}
		}
	}
}
MOTION
Frames: 17
Frame Time: 0.041667
-18.352037 8.992440 34.043276 -175.851601 -4.373322 -162.121066 3.942719 -0.997800 -29.994715 1.036094 -0.446821 6.889271 0.000000 0.000000 0.000000 6.925855 5.621523 -8.026406 -12.608420 -6.996450 -78.622350 -30.549000 -1.101400 10.444800 -38.966099 -8.856410 14.520996 0.000000 -24.691299 0.000000 15.684200 10.337400 14.234985 30.221600 -1.733500 4.009320 39.051601 6.188690 6.685510 0.000000 10.656700 0.000000 -9.582600 -10.348000 -4.188130 4.231476 -20.490770 -12.807185 0.000000 0.000000 4.113660 0.914945 21.310368 -2.641529 0.000000 0.000000 -11.374560 4.302419 25.485225 -12.889235 0.000000 0.000000 3.625330 0.046899 -26.668710 4.374097 0.000000 0.000000 -17.992110 
-18.349116 8.992702 34.042030 -175.843154 -4.258587 -162.102046 3.885039 -0.921771 -29.995479 1.084559 -0.316208 6.940296 0.000000 0.000000 0.000000 6.987876 5.561019 -8.038786 -12.506799 -7.083356 -78.753752 -30.424299 -1.052410 10.367200 -39.373402 -8.655820 15.502991 0.000000 -25.103399 0.000000 15.347900 10.169900 14.295990 30.233801 -1.729310 4.034190 39.712399 6.201590 6.257940 0.000000 10.950300 0.000000 -8.337540 -11.886600 -6.637820 4.225685 -20.419556 -12.790980 0.000000 0.000000 4.103340 0.923747 21.363757 -2.646035 0.000000 0.000000 -11.381830 4.310958 25.475869 -12.884875 0.000000 0.000000 3.589950 0.004223 -26.548485 4.430342 0.000000 0.000000 -18.005960 
-18.345595 8.992620 34.040472 -175.850944 -4.206545 -162.099796 3.779539 -0.918000 -29.982642 1.231701 -0.182485 6.988616 0.000000 0.000000 0.000000 6.910666 5.530109 -8.043967 -12.308319 -7.219935 -78.908827 -30.427299 -1.032690 10.300000 -39.712299 -8.436550 16.872986 0.000000 -25.425200 0.000000 14.911700 10.354100 14.302002 30.223200 -1.757000 4.057430 40.305302 6.103710 7.126310 0.000000 11.559900 0.000000 -6.531320 -12.577800 -6.797660 4.236804 -20.444738 -12.769022 0.000000 0.000000 4.090080 0.914292 21.414400 -2.640720 0.000000 0.000000 -11.415250 4.333623 25.426633 -12.841801 0.000000 0.000000 3.528590 -0.064288 -26.469916 4.482078 0.000000 0.000000 -18.007580 
-18.342961 8.992176 34.039044 -175.861694 -4.226088 -162.068978 3.689751 -0.935892 -29.974909 1.367186 -0.083912 6.993838 0.000000 0.000000 0.000000 6.834272 5.490227 -8.045587 -12.118961 -7.363347 -79.061834 -30.516701 -1.000590 10.275100 -40.043701 -8.251100 18.291992 0.000000 -25.537901 0.000000 14.370500 10.576600 14.455994 30.220301 -1.785350 4.138000 40.805000 5.898360 9.399390 0.000000 12.348900 0.000000 -4.062500 -12.437400 -5.815020 4.266409 -20.495336 -12.793329 0.000000 0.000000 4.078470 0.890464 21.439416 -2.651166 0.000000 0.000000 -11.405290 4.356454 25.318403 -12.822324 0.000000 0.000000 3.462050 -0.084546 -26.380226 4.499807 0.000000 0.000000 -18.014010 
-18.341191 8.991470 34.039317 -175.865683 -4.368393 -161.844878 3.649414 -1.007309 -30.130139 1.478400 -0.076732 6.962176 0.000000 0.000000 0.000000 6.773710 5.440971 -8.050480 -12.021831 -7.490123 -79.193819 -30.628799 -0.966550 10.253100 -40.500401 -8.112130 19.394012 0.000000 -25.304100 0.000000 13.553500 10.536500 15.419006 30.225100 -1.740730 4.271670 41.229301 5.566040 12.718000 0.000000 13.430800 0.000000 -1.690150 -11.730500 -4.381260 4.417255 -20.626652 -13.082057 0.000000 0.000000 4.108900 0.871452 21.443223 -2.675842 0.000000 0.000000 -11.408420 4.312992 25.156735 -13.022447 0.000000 0.000000 3.397050 -0.092340 -26.324418 4.500198 0.000000 0.000000 -17.997770 
-18.338632 8.991281 34.036580 -175.887479 -4.440473 -161.853742 3.572032 -1.077508 -30.131180 1.596497 -0.037885 7.031461 0.000000 0.000000 0.000000 6.687215 5.437206 -8.057718 -11.898888 -7.594120 -79.358459 -30.788200 -0.938193 10.298300 -40.985298 -8.024440 20.144989 0.000000 -24.870501 0.000000 12.409800 10.594000 17.127991 30.231701 -1.659730 4.400490 41.602100 5.172250 16.585199 0.000000 14.649700 0.000000 0.983206 -11.059400 -1.683090 4.413859 -20.628278 -13.045428 0.000000 0.000000 4.067370 0.881812 21.385352 -2.651582 0.000000 0.000000 -11.423070 4.343621 25.092263 -12.966306 0.000000 0.000000 3.355900 -0.118525 -26.332123 4.505969 0.000000 0.000000 -18.002180 
-18.336874 8.991123 34.035126 -175.906354 -4.600744 -161.841907 3.532680 -1.157178 -30.116078 1.633977 -0.056464 7.049954 0.000000 0.000000 0.000000 6.690849 5.432851 -8.046467 -11.850914 -7.652660 -79.517860 -30.931801 -0.922665 10.357600 -41.529900 -7.916250 20.790985 0.000000 -24.305201 0.000000 11.310700 10.689200 18.127014 30.256800 -1.558870 4.599680 41.893902 4.694710 20.751699 0.000000 16.185499 0.000000 3.219380 -10.163200 -1.382830 4.457393 -20.720659 -13.083760 0.000000 0.000000 4.073420 0.926441 21.343425 -2.623440 0.000000 0.000000 -11.434240 4.355861 25.075879 -12.956886 0.000000 0.000000 3.334080 -0.096619 -26.444233 4.479846 0.000000 0.000000 -17.976640 
-18.333682 8.991036 34.024337 -175.928415 -4.609068 -162.195184 3.433790 -1.232812 -29.938838 1.743433 -0.015079 7.284020 0.000000 0.000000 0.000000 6.677721 5.420849 -8.139942 -11.806868 -7.652011 -79.495393 -31.037201 -0.914821 10.423900 -42.173801 -7.782410 21.459015 0.000000 -23.661301 0.000000 10.281000 10.971700 19.045013 30.298599 -1.455230 4.881190 41.982399 4.235370 25.077101 0.000000 18.038300 0.000000 5.300820 -9.786730 0.297167 4.265955 -20.628296 -12.533803 0.000000 0.000000 3.885370 1.014440 21.278762 -2.545650 0.000000 0.000000 -11.429030 4.496402 25.309598 -12.491553 0.000000 0.000000 3.288000 -0.106574 -26.691676 4.470400 0.000000 0.000000 -17.982450 
-18.332183 8.990441 34.016861 -175.932528 -4.682792 -162.108620 3.412405 -1.289388 -30.173735 1.798747 -0.031083 7.555581 0.000000 0.000000 0.000000 6.632103 5.430412 -8.373845 -11.743793 -7.594366 -79.385653 -31.198700 -0.934074 10.598500 -42.643398 -7.694380 22.428009 0.000000 -23.128201 0.000000 9.263660 11.284000 19.720001 30.398800 -1.334600 5.055470 41.905899 3.854730 28.914700 0.000000 19.721001 0.000000 8.004760 -9.496560 0.821754 4.307555 -20.659074 -12.531986 0.000000 0.000000 3.775690 1.059648 21.261086 -2.504779 0.000000 0.000000 -11.423050 4.461331 25.481949 -12.534398 0.000000 0.000000 3.262490 -0.135287 -26.925860 4.454298 0.000000 0.000000 -17.943300 
-18.332589 8.990065 34.016521 -175.922490 -4.989034 -162.030315 3.462094 -1.407321 -30.278790 1.774990 -0.188050 7.728462 0.000000 0.000000 0.000000 6.643866 5.448926 -8.590808 -11.743388 -7.514307 -79.327316 -31.481199 -0.997027 11.056500 -42.808102 -7.786820 23.372009 0.000000 -22.641800 0.000000 7.755200 11.396000 20.786011 30.508200 -1.307600 5.104260 41.781700 3.649920 32.134300 0.000000 21.042700 0.000000 11.017400 -8.981750 1.035300 4.437977 -20.813778 -12.710178 0.000000 0.000000 3.840030 1.000377 21.128057 -2.553345 0.000000 0.000000 -11.385770 4.584643 24.985186 -12.499191 0.000000 0.000000 3.108350 -0.216007 -26.736760 4.531444 0.000000 0.000000 -17.949510 
-18.333290 8.990296 34.017664 -175.930441 -5.288736 -162.019677 3.547559 -1.433028 -30.324181 1.587243 -0.332199 7.944144 0.000000 0.000000 0.000000 6.848834 5.409680 -8.819601 -11.831915 -7.412546 -79.307823 -31.765200 -1.028240 11.482100 -42.608799 -7.795550 24.977997 0.000000 -22.623800 0.000000 6.174140 11.666100 21.476013 30.539801 -1.257820 4.985750 41.944801 3.308400 34.373901 0.000000 21.905300 0.000000 13.367300 -8.229180 1.607930 4.518970 -20.909021 -12.816636 0.000000 0.000000 3.902400 0.890375 20.880149 -2.586142 0.000000 0.000000 -11.335710 4.654784 24.733480 -12.462862 0.000000 0.000000 3.040980 -0.207303 -26.753232 4.537593 0.000000 0.000000 -17.931780 
-18.333945 8.991651 34.017560 -175.940698 -5.508799 -162.119435 3.634253 -1.378205 -30.303888 1.333886 -0.423845 8.203676 0.000000 0.000000 0.000000 7.131055 5.380183 -8.974212 -11.887742 -7.306957 -79.350548 -31.846500 -1.118440 11.679600 -42.618301 -7.771930 26.718994 0.000000 -22.095301 0.000000 4.800460 10.657800 22.757996 30.553900 -1.218220 4.956350 42.115299 3.005400 35.863098 0.000000 22.618799 0.000000 15.261500 -7.845470 1.495820 4.495894 -20.818118 -12.745217 0.000000 0.000000 3.914290 0.840240 20.535629 -2.551216 0.000000 0.000000 -11.308600 4.775673 24.434596 -12.283238 0.000000 0.000000 2.954500 -0.233651 -26.667882 4.597116 0.000000 0.000000 -17.912620 
-18.333612 8.993284 34.019015 -175.961396 -5.634443 -162.217919 3.683343 -1.283230 -30.264685 1.109454 -0.438579 8.489860 0.000000 0.000000 0.000000 7.421740 5.341342 -9.179988 -11.858857 -7.213557 -79.406349 -31.832701 -1.215750 11.636700 -42.649300 -7.593380 27.472992 0.000000 -22.073400 0.000000 2.220300 11.067800 23.938995 30.472601 -1.196920 4.862900 42.284801 2.653970 36.816399 0.000000 23.345400 0.000000 16.498800 -7.922470 0.816089 4.443516 -20.675536 -12.664170 0.000000 0.000000 3.920180 0.783472 20.223462 -2.509497 0.000000 0.000000 -11.265250 4.872649 24.125956 -12.126465 0.000000 0.000000 2.882340 -0.273661 -26.483751 4.667639 0.000000 0.000000 -17.893440 
-18.333169 8.995654 34.023913 -175.977392 -5.741683 -162.347175 3.765588 -1.097386 -30.092189 0.775027 -0.431909 8.641548 0.000000 0.000000 0.000000 7.813803 5.280013 -9.320759 -11.753656 -7.147365 -79.532381 -31.663300 -1.221830 11.614000 -42.623100 -7.550870 28.579010 0.000000 -21.877100 0.000000 0.440805 10.818800 25.894012 30.389601 -1.292130 4.807370 42.395699 2.315190 37.208401 0.000000 24.168100 0.000000 15.890500 -7.873920 0.617863 4.392530 -20.561316 -12.588738 0.000000 0.000000 3.955000 0.720370 19.960738 -2.453151 0.000000 0.000000 -11.230980 4.961632 23.872984 -11.987918 0.000000 0.000000 2.848380 -0.308883 -26.351504 4.765351 0.000000 0.000000 -17.921710 
-18.331395 8.998257 34.033417 -176.047288 -5.888094 -162.440858 3.743294 -1.070577 -29.858341 0.663714 -0.412256 8.695287 0.000000 0.000000 0.000000 7.894574 5.319386 -9.379254 -11.398637 -7.168920 -79.733505 -31.584400 -1.205370 11.564800 -42.510200 -7.463730 28.968994 0.000000 -22.002800 0.000000 -0.953270 11.007200 29.113007 30.334600 -1.396800 4.796310 42.268501 2.041760 37.448299 0.000000 24.855700 0.000000 14.097800 -8.061440 0.024520 4.348962 -20.547593 -12.603121 0.000000 0.000000 4.007860 0.660368 19.737191 -2.348545 0.000000 0.000000 -11.227510 4.957187 23.720941 -11.951326 0.000000 0.000000 2.872780 -0.245729 -26.325585 4.776562 0.000000 0.000000 -17.924290 
-18.329012 9.000255 34.040268 -176.070207 -5.877586 -162.544936 3.726646 -0.974339 -29.674119 0.627057 -0.330903 8.805858 0.000000 0.000000 0.000000 7.960365 5.306343 -9.481932 -11.117158 -7.208964 -79.864091 -31.394400 -1.187370 11.443100 -42.452702 -7.275660 29.156006 0.000000 -22.216999 0.000000 -1.959520 11.700100 29.410004 30.240400 -1.520040 4.771300 42.086300 1.884010 37.061501 0.000000 25.270500 0.000000 13.334100 -8.114300 0.499781 4.262973 -20.296367 -12.510576 0.000000 0.000000 3.985720 0.624020 19.468356 -2.270475 0.000000 0.000000 -11.222480 4.915372 23.940987 -11.951491 0.000000 0.000000 2.968790 -0.145184 -26.491295 4.756833 0.000000 0.000000 -17.898040 
-18.327669 9.002180 34.050123 -176.097676 -5.999954 -162.578113 3.754750 -0.922538 -29.506103 0.544188 -0.338779 8.824816 0.000000 0.000000 0.000000 7.911725 5.364206 -9.456205 -10.793902 -7.271926 -80.068085 -31.197800 -1.220560 11.212800 -42.384499 -6.861910 28.563995 0.000000 -22.545799 0.000000 -2.456380 12.335000 28.183990 30.200001 -1.627780 4.670510 41.817299 1.761560 36.554401 0.000000 25.319901 0.000000 13.515500 -7.972220 0.374347 4.285805 -20.340680 -12.584710 0.000000 0.000000 4.023400 0.590155 19.359703 -2.190092 0.000000 0.000000 -11.233990 4.881771 23.951337 -12.026488 0.000000 0.000000 3.046800 -0.070256 -26.573464 4.755660 0.000000 0.000000 -17.919790 
